<?xml version="1.0" encoding="utf-8"?><svg xmlns="http://www.w3.org/2000/svg" xmlns:xlink="http://www.w3.org/1999/xlink"><symbol fill="none" viewBox="0 0 24 24" id="white-navbar-email-icon" xmlns="http://www.w3.org/2000/svg"><g clip-path="url(#aa)"><path d="M20 4H4c-1.1 0-1.99.9-1.99 2L2 18c0 1.1.9 2 2 2h16c1.1 0 2-.9 2-2V6c0-1.1-.9-2-2-2Zm0 4-8 5-8-5V6l8 5 8-5v2Z" fill="#fff"/></g><defs><clipPath id="aa"><path fill="#fff" d="M0 0h24v24H0z"/></clipPath></defs></symbol><symbol fill="none" viewBox="0 0 96 96" id="white-navbar-phone-icon" xmlns="http://www.w3.org/2000/svg"><g clip-path="url(#ba)"><path d="M26.48 43.16c5.76 11.32 15.04 20.56 26.36 26.36l8.8-8.8a3.977 3.977 0 0 1 4.08-.96c4.48 1.48 9.32 2.28 14.28 2.28 2.2 0 4 1.8 4 4V80c0 2.2-1.8 4-4 4-37.56 0-68-30.44-68-68 0-2.2 1.8-4 4-4h14c2.2 0 4 1.8 4 4 0 5 .8 9.8 2.28 14.28.44 1.4.12 2.96-1 4.08l-8.8 8.8Z" fill="#fff"/></g><defs><clipPath id="ba"><path fill="#fff" d="M0 0h96v96H0z"/></clipPath></defs></symbol></svg>