<?xml version="1.0" encoding="utf-8"?><svg xmlns="http://www.w3.org/2000/svg" xmlns:xlink="http://www.w3.org/1999/xlink"><symbol fill="none" viewBox="0 0 24 24" id="black-cancel-icon" xmlns="http://www.w3.org/2000/svg"><path d="M18 6 6 18M6 6l12 12" stroke="#000" stroke-width="2" stroke-linecap="round" stroke-linejoin="round"/></symbol><symbol fill="none" viewBox="0 0 24 25" id="chevron-down" xmlns="http://www.w3.org/2000/svg"><path d="m6 9.5 6 6 6-6" stroke="#155214" stroke-width="2" stroke-linecap="round" stroke-linejoin="round"/></symbol><symbol fill="none" viewBox="0 0 24 25" id="download-white-icon" xmlns="http://www.w3.org/2000/svg"><path d="M21 15.5v4a2 2 0 0 1-2 2H5a2 2 0 0 1-2-2v-4M7 10.5l5 5 5-5M12 15.5v-12" stroke="#fff" stroke-width="2" stroke-linecap="round" stroke-linejoin="round"/></symbol><symbol fill="none" viewBox="0 0 24 24" id="facebook-white-icon" xmlns="http://www.w3.org/2000/svg"><path d="M10 11.5a1.5 1.5 0 0 0 1.5-1.5V7A3.5 3.5 0 0 1 15 3.5h1.5v1H15A2.5 2.5 0 0 0 12.5 7v3a1.5 1.5 0 0 0 1.5 1.5h2.079l-.25 1H14a1.5 1.5 0 0 0-1.5 1.5v6.5h-1V14a1.5 1.5 0 0 0-1.5-1.5H8.5v-1H10Z" stroke="#fff" stroke-width="3" stroke-linecap="round" stroke-linejoin="round"/></symbol><symbol fill="none" viewBox="0 0 24 24" id="green-navbar-email-icon" xmlns="http://www.w3.org/2000/svg"><g clip-path="url(#ea)"><mask id="eb" style="mask-type:luminance" maskUnits="userSpaceOnUse" x="0" y="0" width="24" height="24"><path d="M24 0H0v24h24V0Z" fill="#fff"/></mask><g mask="url(#eb)"><path d="M20 4H4c-1.1 0-1.99.9-1.99 2L2 18c0 1.1.9 2 2 2h16c1.1 0 2-.9 2-2V6c0-1.1-.9-2-2-2Zm0 4-8 5-8-5V6l8 5 8-5v2Z" fill="#155214"/></g></g><defs><clipPath id="ea"><path fill="#fff" d="M0 0h24v24H0z"/></clipPath></defs></symbol><symbol fill="none" viewBox="0 0 24 24" id="green-navbar-phone-icon" xmlns="http://www.w3.org/2000/svg"><g clip-path="url(#fa)"><mask id="fb" style="mask-type:luminance" maskUnits="userSpaceOnUse" x="0" y="0" width="24" height="24"><path d="M24 0H0v24h24V0Z" fill="#fff"/></mask><g mask="url(#fb)"><path d="M6.62 10.79c1.44 2.83 3.76 5.14 6.59 6.59l2.2-2.2c.27-.27.67-.36 1.02-.24 1.12.37 2.33.57 3.57.57.55 0 1 .45 1 1V20c0 .55-.45 1-1 1-9.39 0-17-7.61-17-17 0-.55.45-1 1-1h3.5c.55 0 1 .45 1 1 0 1.25.2 2.45.57 3.57.11.35.03.74-.25 1.02l-2.2 2.2Z" fill="#155214"/></g></g><defs><clipPath id="fa"><path fill="#fff" d="M0 0h24v24H0z"/></clipPath></defs></symbol><symbol fill="none" viewBox="0 0 25 25" id="green-plus-icon" xmlns="http://www.w3.org/2000/svg"><path d="M12.807 5.79v14M5.807 12.79h14" stroke="#155214" stroke-width="2" stroke-linecap="round" stroke-linejoin="round"/></symbol><symbol fill="none" viewBox="0 0 24 24" id="linkedin_white-icon" xmlns="http://www.w3.org/2000/svg"><path d="M20.45 20.45h-3.557v-5.57c0-1.328-.024-3.037-1.85-3.037-1.851 0-2.135 1.447-2.135 2.94v5.666H9.352V8.997h3.414v1.565h.048a3.742 3.742 0 0 1 3.368-1.85c3.604 0 4.269 2.37 4.269 5.455l-.002 6.283ZM5.34 7.43a2.064 2.064 0 1 1-.001-4.127 2.064 2.064 0 0 1 0 4.127ZM7.118 20.45h-3.56V8.997h3.56V20.45ZM22.222.002H1.771A1.751 1.751 0 0 0 0 1.732v20.536A1.753 1.753 0 0 0 1.771 24h20.451A1.756 1.756 0 0 0 24 22.268V1.73A1.755 1.755 0 0 0 22.222 0" fill="#fff"/></symbol><symbol fill="none" viewBox="0 0 24 25" id="map-pin" xmlns="http://www.w3.org/2000/svg"><path d="M14.5 10.5c0 .854-.674 2.429-2.5 4.42-1.826-1.991-2.5-3.566-2.5-4.42a2.5 2.5 0 0 1 5 0Z" stroke="#fff" stroke-width="13" stroke-linecap="round" stroke-linejoin="round"/><path d="M13.5 10.5a1.5 1.5 0 1 1-3 0 1.5 1.5 0 0 1 3 0Z" stroke="#000" stroke-width="3" stroke-linecap="round" stroke-linejoin="round"/></symbol><symbol fill="none" viewBox="0 0 96 96" id="mini-menu-arrow-left" xmlns="http://www.w3.org/2000/svg"><g clip-path="url(#ja)"><mask id="jb" style="mask-type:luminance" maskUnits="userSpaceOnUse" x="0" y="0" width="96" height="96"><path d="M96 0H0v96h96V0Z" fill="#fff"/></mask><g mask="url(#jb)"><path d="M40 63.172c0 1.781 2.154 2.674 3.414 1.414l15.172-15.172a2 2 0 0 0 0-2.828L43.414 31.414c-1.26-1.26-3.414-.367-3.414 1.414v30.344Z" fill="#000" fill-opacity=".7"/></g></g><defs><clipPath id="ja"><path fill="#fff" d="M0 0h96v96H0z"/></clipPath></defs></symbol><symbol fill="none" viewBox="0 0 24 24" id="twitter-white-icon" xmlns="http://www.w3.org/2000/svg"><path d="M5.956 11.676a5.29 5.29 0 0 1-.707-1.774 13.66 13.66 0 0 0 6.829 1.627A3 3 0 0 0 15 8.53V7.49a1.48 1.48 0 0 1 2.596-.991c.102.117.212.225.328.323.007.137.023.274.05.411.017.09.026.181.026.273-.002 4.697-2.19 7.77-5.034 9.283a9.592 9.592 0 0 1-2.023.794 2.997 2.997 0 0 0-1.725-3.324c-1.77-.787-2.722-1.731-3.262-2.583Z" stroke="#fff" stroke-width="6" stroke-linecap="round" stroke-linejoin="round"/></symbol><symbol fill="none" viewBox="0 0 24 24" id="whatsapp-white-icon" xmlns="http://www.w3.org/2000/svg"><g clip-path="url(#la)"><path fill-rule="evenodd" clip-rule="evenodd" d="M20.503 3.485A11.903 11.903 0 0 0 12.05 0C5.463 0 .103 5.33.1 11.883c0 2.095.55 4.14 1.595 5.94L0 23.984l6.335-1.653a11.986 11.986 0 0 0 5.71 1.446h.005c6.586 0 11.948-5.331 11.95-11.883a11.778 11.778 0 0 0-3.497-8.407v-.001ZM12.05 21.769h-.004a9.96 9.96 0 0 1-5.055-1.376l-.363-.215-3.76.981 1.004-3.645-.236-.374a9.812 9.812 0 0 1-1.518-5.256c.002-5.446 4.458-9.877 9.937-9.877a9.892 9.892 0 0 1 7.021 2.897 9.789 9.789 0 0 1 2.907 6.988c-.003 5.446-4.458 9.877-9.933 9.877Zm5.448-7.397c-.298-.149-1.766-.867-2.04-.966-.274-.1-.473-.149-.672.149-.198.297-.77.966-.945 1.164-.174.198-.348.223-.647.074-.298-.149-1.26-.462-2.401-1.473-.888-.788-1.487-1.76-1.661-2.058-.175-.297-.019-.458.13-.605.134-.134.299-.347.448-.52.15-.174.2-.298.299-.496.1-.198.05-.371-.025-.52-.074-.149-.671-1.61-.92-2.205-.243-.578-.49-.5-.672-.51-.174-.008-.373-.01-.572-.01-.2 0-.523.074-.797.372-.274.297-1.045 1.016-1.045 2.477 0 1.46 1.07 2.873 1.22 3.072.149.198 2.105 3.197 5.1 4.483.712.306 1.268.49 1.702.626.715.226 1.366.195 1.88.118.574-.085 1.767-.718 2.016-1.412.249-.693.249-1.288.174-1.412-.074-.124-.274-.198-.572-.347v-.001Z" fill="#fff"/></g><defs><clipPath id="la"><path fill="#fff" d="M0 0h24v24H0z"/></clipPath></defs></symbol><symbol fill="none" viewBox="0 0 24 24" id="white-navbar-email-icon" xmlns="http://www.w3.org/2000/svg"><g clip-path="url(#ma)"><path d="M20 4H4c-1.1 0-1.99.9-1.99 2L2 18c0 1.1.9 2 2 2h16c1.1 0 2-.9 2-2V6c0-1.1-.9-2-2-2Zm0 4-8 5-8-5V6l8 5 8-5v2Z" fill="#fff"/></g><defs><clipPath id="ma"><path fill="#fff" d="M0 0h24v24H0z"/></clipPath></defs></symbol><symbol fill="none" viewBox="0 0 96 96" id="white-navbar-phone-icon" xmlns="http://www.w3.org/2000/svg"><g clip-path="url(#na)"><path d="M26.48 43.16c5.76 11.32 15.04 20.56 26.36 26.36l8.8-8.8a3.977 3.977 0 0 1 4.08-.96c4.48 1.48 9.32 2.28 14.28 2.28 2.2 0 4 1.8 4 4V80c0 2.2-1.8 4-4 4-37.56 0-68-30.44-68-68 0-2.2 1.8-4 4-4h14c2.2 0 4 1.8 4 4 0 5 .8 9.8 2.28 14.28.44 1.4.12 2.96-1 4.08l-8.8 8.8Z" fill="#fff"/></g><defs><clipPath id="na"><path fill="#fff" d="M0 0h96v96H0z"/></clipPath></defs></symbol></svg>