<?xml version="1.0" encoding="utf-8"?><svg xmlns="http://www.w3.org/2000/svg" xmlns:xlink="http://www.w3.org/1999/xlink"><symbol fill="none" viewBox="0 0 60 27" id="portfolio-logo" xmlns="http://www.w3.org/2000/svg"><path d="M17.5 8.867c0 4.492-3.788 8.166-8.5 8.166S.5 13.36.5 8.867C.5 4.374 4.288.7 9 .7s8.5 3.674 8.5 8.167Z" stroke="#FF4900"/><path d="M28 17.533c0 4.493-3.788 8.167-8.5 8.167S11 22.026 11 17.533c0-4.492 3.788-8.166 8.5-8.166S28 13.04 28 17.533Z" stroke="#FF4900"/><path d="M38.5 8.867c0 4.492-3.788 8.166-8.5 8.166s-8.5-3.674-8.5-8.166C21.5 4.374 25.288.7 30 .7s8.5 3.674 8.5 8.167Z" stroke="#FF4900"/><path d="M49 17.533c0 4.493-3.788 8.167-8.5 8.167S32 22.026 32 17.533c0-4.492 3.788-8.166 8.5-8.166S49 13.04 49 17.533Z" stroke="#FF4900"/><path d="M59.5 8.867c0 4.492-3.788 8.166-8.5 8.166s-8.5-3.674-8.5-8.166C42.5 4.374 46.288.7 51 .7s8.5 3.674 8.5 8.167Z" stroke="#FF4900"/></symbol><symbol fill="none" viewBox="0 0 25 25" id="white-phone-icon" xmlns="http://www.w3.org/2000/svg"><path d="M22.141 17.665v3a2 2 0 0 1-2.18 2 19.788 19.788 0 0 1-8.63-3.07 19.5 19.5 0 0 1-6-6 19.79 19.79 0 0 1-3.07-8.67 2 2 0 0 1 1.99-2.18h3a2 2 0 0 1 2 1.72c.127.96.362 1.903.7 2.81a2 2 0 0 1-.45 2.11l-1.27 1.27a15.999 15.999 0 0 0 6 6l1.27-1.27a2 2 0 0 1 2.11-.45c.908.338 1.85.573 2.81.7a2 2 0 0 1 1.72 2.03Z" fill="#fff"/></symbol></svg>