<svg width="24" height="24" viewBox="0 0 24 24" fill="none" xmlns="http://www.w3.org/2000/svg">
<path d="M10 11.5C10.8284 11.5 11.5 10.8284 11.5 10V7C11.5 6.07174 11.8687 5.1815 12.5251 4.52513C13.1815 3.86875 14.0717 3.5 15 3.5H16.5V4.5H15C14.337 4.5 13.7011 4.76339 13.2322 5.23223C12.7634 5.70107 12.5 6.33696 12.5 7V10C12.5 10.8284 13.1716 11.5 14 11.5H16.0788L15.8288 12.5H14C13.1716 12.5 12.5 13.1716 12.5 14V20.5H11.5V14C11.5 13.1716 10.8284 12.5 10 12.5H8.5V11.5H10Z" stroke="white" stroke-width="3" stroke-linecap="round" stroke-linejoin="round"/>
</svg>
