<svg width="60" height="27" viewBox="0 0 60 27" fill="none" xmlns="http://www.w3.org/2000/svg">
<path d="M17.5 8.86665C17.5 13.3594 13.7124 17.0333 9 17.0333C4.28763 17.0333 0.5 13.3594 0.5 8.86665C0.5 4.37394 4.28763 0.699982 9 0.699982C13.7124 0.699982 17.5 4.37394 17.5 8.86665Z" stroke="#FF4900"/>
<path d="M28 17.5333C28 22.026 24.2123 25.7 19.5 25.7C14.7876 25.7 11 22.026 11 17.5333C11 13.0406 14.7876 9.36664 19.5 9.36664C24.2123 9.36664 28 13.0406 28 17.5333Z" stroke="#FF4900"/>
<path d="M38.5 8.86665C38.5 13.3594 34.7124 17.0333 30 17.0333C25.2877 17.0333 21.5 13.3594 21.5 8.86665C21.5 4.37394 25.2877 0.699982 30 0.699982C34.7124 0.699982 38.5 4.37394 38.5 8.86665Z" stroke="#FF4900"/>
<path d="M49 17.5333C49 22.026 45.2124 25.7 40.5 25.7C35.7877 25.7 32 22.026 32 17.5333C32 13.0406 35.7877 9.36664 40.5 9.36664C45.2124 9.36664 49 13.0406 49 17.5333Z" stroke="#FF4900"/>
<path d="M59.5 8.86665C59.5 13.3594 55.7124 17.0333 51 17.0333C46.2876 17.0333 42.5 13.3594 42.5 8.86665C42.5 4.37394 46.2876 0.699982 51 0.699982C55.7124 0.699982 59.5 4.37394 59.5 8.86665Z" stroke="#FF4900"/>
</svg>
