<svg width="24" height="24" viewBox="0 0 24 24" fill="none" xmlns="http://www.w3.org/2000/svg">
<path d="M5.95633 11.6761C5.60161 11.116 5.37642 10.5175 5.24904 9.90166C5.35921 9.96096 5.47028 10.0188 5.58223 10.0751C7.59441 11.0879 9.82583 11.5874 12.0778 11.529C13.7038 11.4868 15 10.1566 15 8.53V7.53L14.9997 7.48979C14.9957 7.18663 15.0848 6.88954 15.2551 6.63869C15.4254 6.38785 15.6686 6.19535 15.9518 6.08724C16.2351 5.97913 16.5447 5.96061 16.8388 6.03421C17.133 6.1078 17.3974 6.26995 17.5963 6.49871C17.6981 6.61575 17.8077 6.72352 17.9238 6.82166C17.9308 6.95881 17.9472 7.09631 17.9734 7.23325C17.9905 7.32315 17.9995 7.41443 18 7.50595C17.9981 12.2028 15.8094 15.2755 12.9655 16.7893C12.3339 17.1254 11.6555 17.3923 10.9428 17.5834C10.9975 17.3074 11.0139 17.0214 10.9881 16.7332C10.8912 15.6482 10.2138 14.701 9.21842 14.2586C7.44812 13.4718 6.49586 12.528 5.95633 11.6761Z" stroke="white" stroke-width="6" stroke-linecap="round" stroke-linejoin="round"/>
</svg>
