<svg width="25" height="25" viewBox="0 0 25 25" fill="none" xmlns="http://www.w3.org/2000/svg">
<path d="M22.1413 17.6649V20.6649C22.1424 20.9434 22.0854 21.2191 21.9738 21.4743C21.8622 21.7295 21.6986 21.9585 21.4934 22.1468C21.2881 22.3351 21.0459 22.4784 20.782 22.5676C20.5182 22.6569 20.2387 22.69 19.9613 22.6649C16.8841 22.3306 13.9283 21.2791 11.3313 19.5949C8.91512 18.0596 6.86663 16.0111 5.33129 13.5949C3.64127 10.9861 2.58954 8.01593 2.26129 4.92494C2.2363 4.64841 2.26917 4.3697 2.35779 4.10656C2.44642 3.84343 2.58886 3.60163 2.77606 3.39656C2.96325 3.19149 3.1911 3.02765 3.44508 2.91546C3.69907 2.80327 3.97363 2.7452 4.25129 2.74494H7.25129C7.7366 2.74016 8.20708 2.91202 8.57505 3.22847C8.94302 3.54493 9.18337 3.98439 9.25129 4.46494C9.37792 5.42501 9.61274 6.36767 9.95129 7.27494C10.0858 7.63286 10.115 8.02185 10.0352 8.39582C9.95544 8.76979 9.77016 9.11305 9.50129 9.38494L8.23129 10.6549C9.65485 13.1585 11.7277 15.2314 14.2313 16.6549L15.5013 15.3849C15.7732 15.1161 16.1164 14.9308 16.4904 14.851C16.8644 14.7713 17.2534 14.8004 17.6113 14.9349C18.5186 15.2735 19.4612 15.5083 20.4213 15.6349C20.9071 15.7035 21.3507 15.9481 21.6678 16.3224C21.985 16.6967 22.1535 17.1745 22.1413 17.6649Z" fill="white"/>
</svg>
